<mxfile host="Electron" modified="2023-12-14T02:31:44.567Z" agent="Mozilla/5.0 (Macintosh; Intel Mac OS X 10_15_7) AppleWebKit/537.36 (KHTML, like Gecko) draw.io/22.1.2 Chrome/114.0.5735.289 Electron/25.9.4 Safari/537.36" etag="z4HE6Tj9h05JjJ061Br2" version="22.1.2" type="device">
  <diagram name="第 1 页" id="frfy8RY4p06mu8gLgMD-">
    <mxGraphModel dx="899" dy="1843" grid="1" gridSize="10" guides="1" tooltips="1" connect="1" arrows="1" fold="1" page="1" pageScale="1" pageWidth="827" pageHeight="1169" math="0" shadow="0">
      <root>
        <mxCell id="0" />
        <mxCell id="1" parent="0" />
        <mxCell id="1FvUJJnxmFM7z1NlNtc7-2" value="&lt;div style=&quot;background-color: rgb(255, 255, 255); font-size: 13px; line-height: 19px;&quot;&gt;&lt;br&gt;&lt;/div&gt;" style="verticalLabelPosition=bottom;verticalAlign=top;html=1;shape=mxgraph.basic.polygon;polyCoords=[[0,0.6],[0.2,0.1],[0.8,0.1],[1,0.6],[0.75,1],[0.25,1],[0,0.6],[0,0.6]];polyline=1;hachureGap=4;fontFamily=Architects Daughter;fontSource=https%3A%2F%2Ffonts.googleapis.com%2Fcss%3Ffamily%3DArchitects%2BDaughter;fontSize=13;labelBackgroundColor=none;strokeWidth=2;strokeColor=#006633;fontStyle=1;sketch=1;curveFitting=1;jiggle=2;" parent="1" vertex="1">
          <mxGeometry x="590" y="130" width="70" height="70" as="geometry" />
        </mxCell>
        <mxCell id="1FvUJJnxmFM7z1NlNtc7-5" value="&lt;div style=&quot;background-color: rgb(255, 255, 255); font-size: 13px; line-height: 19px;&quot;&gt;&lt;br&gt;&lt;/div&gt;" style="verticalLabelPosition=bottom;verticalAlign=top;html=1;shape=mxgraph.basic.polygon;polyCoords=[[0,0.6],[0.2,0.1],[0.8,0.1],[1,0.6],[0.75,1],[0.25,1],[0,0.6],[0,0.6]];polyline=1;hachureGap=4;fontFamily=Architects Daughter;fontSource=https%3A%2F%2Ffonts.googleapis.com%2Fcss%3Ffamily%3DArchitects%2BDaughter;fontSize=13;labelBackgroundColor=none;strokeWidth=2;strokeColor=#006633;fontStyle=1;fontColor=#994C00;sketch=1;curveFitting=1;jiggle=2;" parent="1" vertex="1">
          <mxGeometry x="170" y="130" width="70" height="70" as="geometry" />
        </mxCell>
        <mxCell id="1FvUJJnxmFM7z1NlNtc7-6" value="&lt;div style=&quot;color: rgb(59, 59, 59); background-color: rgb(255, 255, 255); font-size: 13px; line-height: 19px;&quot;&gt;&lt;br style=&quot;font-size: 13px;&quot;&gt;&lt;/div&gt;" style="verticalLabelPosition=bottom;verticalAlign=top;html=1;shape=mxgraph.basic.polygon;polyCoords=[[0,0.6],[0.2,0.1],[0.8,0.1],[1,0.6],[0.75,1],[0.25,1],[0,0.6],[0,0.6]];polyline=1;hachureGap=4;fontFamily=Architects Daughter;fontSource=https%3A%2F%2Ffonts.googleapis.com%2Fcss%3Ffamily%3DArchitects%2BDaughter;fontSize=13;labelBackgroundColor=none;strokeWidth=2;strokeColor=#006633;fontStyle=1;sketch=1;curveFitting=1;jiggle=2;" parent="1" vertex="1">
          <mxGeometry x="450" y="-90" width="70" height="70" as="geometry" />
        </mxCell>
        <mxCell id="1FvUJJnxmFM7z1NlNtc7-13" value="&lt;div style=&quot;color: rgb(59, 59, 59); background-color: rgb(255, 255, 255); font-size: 13px; line-height: 19px;&quot;&gt;&lt;br style=&quot;font-size: 13px;&quot;&gt;&lt;/div&gt;" style="text;html=1;align=center;verticalAlign=middle;resizable=0;points=[];autosize=1;strokeColor=none;fillColor=none;fontFamily=Architects Daughter;fontSource=https%3A%2F%2Ffonts.googleapis.com%2Fcss%3Ffamily%3DArchitects%2BDaughter;fontStyle=1;fontSize=13;strokeWidth=2;sketch=1;curveFitting=1;jiggle=2;" parent="1" vertex="1">
          <mxGeometry x="379" y="10" width="20" height="30" as="geometry" />
        </mxCell>
        <mxCell id="1FvUJJnxmFM7z1NlNtc7-16" style="rounded=0;orthogonalLoop=1;jettySize=auto;html=1;exitX=0;exitY=0.5;exitDx=0;exitDy=0;entryX=1.051;entryY=0.647;entryDx=0;entryDy=0;entryPerimeter=0;fontFamily=Architects Daughter;fontSource=https%3A%2F%2Ffonts.googleapis.com%2Fcss%3Ffamily%3DArchitects%2BDaughter;fontSize=13;fontStyle=1;strokeWidth=2;startArrow=classicThin;startFill=1;endArrow=classicThin;endFill=1;strokeColor=#66B2FF;sketch=1;curveFitting=1;jiggle=2;" parent="1" source="1FvUJJnxmFM7z1NlNtc7-14" target="1FvUJJnxmFM7z1NlNtc7-5" edge="1">
          <mxGeometry relative="1" as="geometry" />
        </mxCell>
        <mxCell id="1FvUJJnxmFM7z1NlNtc7-17" style="edgeStyle=none;rounded=0;orthogonalLoop=1;jettySize=auto;html=1;exitX=1;exitY=0.5;exitDx=0;exitDy=0;entryX=0.046;entryY=0.563;entryDx=0;entryDy=0;entryPerimeter=0;fontFamily=Architects Daughter;fontSource=https%3A%2F%2Ffonts.googleapis.com%2Fcss%3Ffamily%3DArchitects%2BDaughter;fontSize=13;fontStyle=1;strokeWidth=2;startArrow=classicThin;startFill=1;endArrow=classicThin;endFill=1;strokeColor=#66B2FF;sketch=1;curveFitting=1;jiggle=2;" parent="1" source="1FvUJJnxmFM7z1NlNtc7-14" target="1FvUJJnxmFM7z1NlNtc7-2" edge="1">
          <mxGeometry relative="1" as="geometry" />
        </mxCell>
        <mxCell id="1FvUJJnxmFM7z1NlNtc7-18" style="edgeStyle=none;rounded=0;orthogonalLoop=1;jettySize=auto;html=1;exitX=0.5;exitY=0;exitDx=0;exitDy=0;entryX=0.467;entryY=0.996;entryDx=0;entryDy=0;entryPerimeter=0;fontFamily=Architects Daughter;fontSource=https%3A%2F%2Ffonts.googleapis.com%2Fcss%3Ffamily%3DArchitects%2BDaughter;fontSize=13;fontStyle=1;strokeWidth=2;startArrow=classicThin;startFill=1;endArrow=classicThin;endFill=1;strokeColor=#66B2FF;sketch=1;curveFitting=1;jiggle=2;" parent="1" source="1FvUJJnxmFM7z1NlNtc7-14" target="1FvUJJnxmFM7z1NlNtc7-6" edge="1">
          <mxGeometry relative="1" as="geometry" />
        </mxCell>
        <mxCell id="1FvUJJnxmFM7z1NlNtc7-14" value="mosquitto/emqx" style="rounded=1;whiteSpace=wrap;html=1;fontFamily=Architects Daughter;fontSource=https%3A%2F%2Ffonts.googleapis.com%2Fcss%3Ffamily%3DArchitects%2BDaughter;fontStyle=1;fontSize=16;strokeWidth=2;strokeColor=#004C99;sketch=1;curveFitting=1;jiggle=2;glass=0;shadow=0;opacity=60;fontColor=#004C99;" parent="1" vertex="1">
          <mxGeometry x="345" y="60" width="140" height="70" as="geometry" />
        </mxCell>
        <mxCell id="1FvUJJnxmFM7z1NlNtc7-15" value="MQTT Broker Cluster" style="text;html=1;align=center;verticalAlign=middle;resizable=0;points=[];autosize=1;strokeColor=none;fillColor=none;fontFamily=Architects Daughter;fontSource=https%3A%2F%2Ffonts.googleapis.com%2Fcss%3Ffamily%3DArchitects%2BDaughter;fontSize=13;fontStyle=1;strokeWidth=2;sketch=1;curveFitting=1;jiggle=2;" parent="1" vertex="1">
          <mxGeometry x="335" y="130" width="160" height="30" as="geometry" />
        </mxCell>
        <mxCell id="1FvUJJnxmFM7z1NlNtc7-19" value="&lt;span style=&quot;font-size: 13px; font-style: normal; font-variant-ligatures: normal; font-variant-caps: normal; letter-spacing: normal; orphans: 2; text-align: center; text-indent: 0px; text-transform: none; widows: 2; word-spacing: 0px; -webkit-text-stroke-width: 0px; background-color: rgb(255, 255, 255); text-decoration-thickness: initial; text-decoration-style: initial; text-decoration-color: initial; float: none; display: inline !important;&quot;&gt;&lt;font color=&quot;#009999&quot;&gt;paho.mqtt.golang&lt;/font&gt;&lt;/span&gt;" style="text;whiteSpace=wrap;html=1;fontFamily=Architects Daughter;fontSource=https%3A%2F%2Ffonts.googleapis.com%2Fcss%3Ffamily%3DArchitects%2BDaughter;fontSize=13;fontStyle=1;strokeWidth=2;sketch=1;curveFitting=1;jiggle=2;" parent="1" vertex="1">
          <mxGeometry x="485" y="-15" width="140" height="40" as="geometry" />
        </mxCell>
        <mxCell id="1FvUJJnxmFM7z1NlNtc7-20" value="subscribe/publish" style="text;html=1;align=center;verticalAlign=middle;resizable=0;points=[];autosize=1;strokeColor=none;fillColor=none;fontFamily=Architects Daughter;fontSource=https%3A%2F%2Ffonts.googleapis.com%2Fcss%3Ffamily%3DArchitects%2BDaughter;fontSize=13;fontStyle=1;strokeWidth=2;fontColor=#66B2FF;sketch=1;curveFitting=1;jiggle=2;" parent="1" vertex="1">
          <mxGeometry x="324" width="130" height="30" as="geometry" />
        </mxCell>
        <mxCell id="1FvUJJnxmFM7z1NlNtc7-21" value="subscribe/publish" style="text;html=1;align=center;verticalAlign=middle;resizable=0;points=[];autosize=1;strokeColor=none;fillColor=none;fontFamily=Architects Daughter;fontSource=https%3A%2F%2Ffonts.googleapis.com%2Fcss%3Ffamily%3DArchitects%2BDaughter;fontSize=13;fontStyle=1;strokeWidth=2;fontColor=#66B2FF;sketch=1;curveFitting=1;jiggle=2;" parent="1" vertex="1">
          <mxGeometry x="190" y="100" width="130" height="30" as="geometry" />
        </mxCell>
        <mxCell id="1FvUJJnxmFM7z1NlNtc7-22" value="subscribe/publish" style="text;html=1;align=center;verticalAlign=middle;resizable=0;points=[];autosize=1;strokeColor=none;fillColor=none;fontFamily=Architects Daughter;fontSource=https%3A%2F%2Ffonts.googleapis.com%2Fcss%3Ffamily%3DArchitects%2BDaughter;fontSize=13;fontStyle=1;strokeWidth=2;fontColor=#66B2FF;sketch=1;curveFitting=1;jiggle=2;" parent="1" vertex="1">
          <mxGeometry x="515" y="90" width="130" height="30" as="geometry" />
        </mxCell>
        <mxCell id="1FvUJJnxmFM7z1NlNtc7-23" value="&lt;span style=&quot;color: rgb(0, 76, 153); font-family: &amp;quot;Architects Daughter&amp;quot;; font-size: 13px; font-style: normal; font-variant-ligatures: normal; font-variant-caps: normal; font-weight: 700; letter-spacing: normal; orphans: 2; text-align: center; text-indent: 0px; text-transform: none; widows: 2; word-spacing: 0px; -webkit-text-stroke-width: 0px; background-color: rgb(255, 255, 255); text-decoration-thickness: initial; text-decoration-style: initial; text-decoration-color: initial; float: none; display: inline !important;&quot;&gt;paho.mqtt.java&lt;/span&gt;" style="text;whiteSpace=wrap;html=1;fontSize=20;fontFamily=Architects Daughter;" parent="1" vertex="1">
          <mxGeometry x="235" y="170" width="110" height="50" as="geometry" />
        </mxCell>
        <mxCell id="1FvUJJnxmFM7z1NlNtc7-24" value="&lt;span style=&quot;color: rgb(153, 76, 0); font-family: &amp;quot;Architects Daughter&amp;quot;; font-size: 13px; font-style: normal; font-variant-ligatures: normal; font-variant-caps: normal; font-weight: 700; letter-spacing: normal; orphans: 2; text-align: center; text-indent: 0px; text-transform: none; widows: 2; word-spacing: 0px; -webkit-text-stroke-width: 0px; background-color: rgb(255, 255, 255); text-decoration-thickness: initial; text-decoration-style: initial; text-decoration-color: initial; float: none; display: inline !important;&quot;&gt;paho.mqtt.rust&lt;/span&gt;" style="text;whiteSpace=wrap;html=1;fontSize=20;fontFamily=Architects Daughter;" parent="1" vertex="1">
          <mxGeometry x="504" y="170" width="120" height="50" as="geometry" />
        </mxCell>
        <mxCell id="1FvUJJnxmFM7z1NlNtc7-25" value="&lt;span style=&quot;color: rgb(0, 153, 153); font-family: &amp;quot;Architects Daughter&amp;quot;; font-size: 16px; font-style: normal; font-variant-ligatures: normal; font-variant-caps: normal; font-weight: 700; letter-spacing: normal; orphans: 2; text-align: center; text-indent: 0px; text-transform: none; widows: 2; word-spacing: 0px; -webkit-text-stroke-width: 0px; background-color: rgb(255, 255, 255); text-decoration-thickness: initial; text-decoration-style: initial; text-decoration-color: initial; float: none; display: inline !important;&quot;&gt;paho&lt;/span&gt;" style="text;whiteSpace=wrap;html=1;fontSize=16;fontFamily=Architects Daughter;" parent="1" vertex="1">
          <mxGeometry x="466" y="-68" width="40" height="40" as="geometry" />
        </mxCell>
        <mxCell id="1FvUJJnxmFM7z1NlNtc7-26" value="&lt;span style=&quot;color: rgb(0, 76, 153); font-family: &amp;quot;Architects Daughter&amp;quot;; font-size: 16px; font-style: normal; font-variant-ligatures: normal; font-variant-caps: normal; font-weight: 700; letter-spacing: normal; orphans: 2; text-align: center; text-indent: 0px; text-transform: none; widows: 2; word-spacing: 0px; -webkit-text-stroke-width: 0px; background-color: rgb(255, 255, 255); text-decoration-thickness: initial; text-decoration-style: initial; text-decoration-color: initial; float: none; display: inline !important;&quot;&gt;paho&lt;/span&gt;" style="text;whiteSpace=wrap;html=1;fontSize=16;fontFamily=Architects Daughter;" parent="1" vertex="1">
          <mxGeometry x="186" y="153" width="50" height="40" as="geometry" />
        </mxCell>
        <mxCell id="1FvUJJnxmFM7z1NlNtc7-27" value="&lt;span style=&quot;color: rgb(153, 76, 0); font-family: &amp;quot;Architects Daughter&amp;quot;; font-size: 16px; font-style: normal; font-variant-ligatures: normal; font-variant-caps: normal; font-weight: 700; letter-spacing: normal; orphans: 2; text-align: center; text-indent: 0px; text-transform: none; widows: 2; word-spacing: 0px; -webkit-text-stroke-width: 0px; background-color: rgb(255, 255, 255); text-decoration-thickness: initial; text-decoration-style: initial; text-decoration-color: initial; float: none; display: inline !important;&quot;&gt;paho&lt;/span&gt;" style="text;whiteSpace=wrap;html=1;fontSize=16;fontFamily=Architects Daughter;" parent="1" vertex="1">
          <mxGeometry x="605" y="153" width="40" height="40" as="geometry" />
        </mxCell>
      </root>
    </mxGraphModel>
  </diagram>
</mxfile>
